<?xml version="1.0" encoding="utf-8" ?>
<svg baseProfile="full" height="38pt" version="1.1" viewBox="0 0 172 172" width="38pt" xmlns="http://www.w3.org/2000/svg" xmlns:ev="http://www.w3.org/2001/xml-events" xmlns:xlink="http://www.w3.org/1999/xlink"><defs /><path d="M449,47  Z" fill="#000000" stroke="none" /><path d="M252,499 L248,495 L248,494 L246,492 L246,491 L244,489 L244,488 L241,485 L241,484 L238,481 L238,480 L237,479 L237,478 L236,477 L236,475 L235,474 L235,470 L234,469 L234,467 L233,466 L233,462 L232,461 L232,460 L233,459 L234,459 L235,458 L236,458 L238,456 L239,456 L241,454 L242,454 L244,452 L245,452 L246,451 L247,451 L248,452 L248,453 L251,456 L251,457 L252,458 L252,459 L256,463 L256,464 L258,466 L259,465 L260,465 L261,464 L262,464 L265,461 L266,461 L267,460 L268,460 L270,458 L271,458 L272,457 L273,457 L275,455 L276,455 L277,454 L278,454 L280,452 L281,452 L282,451 L283,451 L285,449 L286,449 L288,447 L289,447 L291,445 L292,445 L293,444 L293,443 L294,442 L294,440 L295,439 L295,435 L297,433 L298,433 L299,432 L302,432 L303,431 L304,431 L305,430 L306,430 L307,429 L307,427 L308,426 L308,422 L309,421 L309,420 L308,419 L306,419 L305,420 L302,420 L301,421 L297,421 L296,422 L292,422 L291,423 L288,423 L287,424 L277,424 L276,425 L267,425 L265,427 L264,427 L263,426 L261,426 L260,427 L257,427 L256,426 L255,427 L248,427 L247,426 L241,426 L240,425 L236,425 L235,426 L234,425 L231,425 L230,424 L223,424 L222,423 L218,423 L217,422 L214,422 L213,421 L209,421 L208,420 L205,420 L204,419 L202,419 L201,418 L198,418 L197,417 L195,417 L194,416 L191,416 L190,415 L187,415 L186,414 L185,414 L184,413 L182,413 L181,412 L180,412 L179,411 L178,411 L177,410 L176,410 L175,409 L173,409 L172,408 L171,408 L170,407 L169,407 L168,406 L167,406 L166,405 L165,405 L164,404 L163,404 L162,403 L161,403 L159,401 L158,401 L157,400 L156,400 L155,399 L154,399 L152,397 L151,397 L149,395 L148,395 L147,394 L146,394 L142,390 L141,390 L138,387 L137,387 L134,384 L133,384 L129,380 L128,380 L122,374 L121,374 L121,373 L120,372 L119,372 L115,368 L114,368 L114,367 L113,366 L113,365 L106,358 L105,358 L105,356 L103,354 L102,354 L102,353 L99,350 L99,349 L96,346 L96,345 L94,343 L94,342 L93,341 L93,340 L89,336 L89,335 L88,334 L88,333 L87,332 L87,331 L85,329 L85,328 L83,326 L83,325 L81,323 L81,322 L80,321 L80,320 L79,319 L79,318 L78,317 L78,316 L77,315 L77,314 L76,313 L76,311 L74,309 L74,306 L73,305 L73,304 L72,303 L72,302 L71,301 L71,300 L70,299 L70,296 L69,295 L69,293 L68,292 L68,291 L67,290 L67,286 L66,285 L66,283 L65,282 L65,279 L64,278 L64,275 L63,274 L63,271 L62,270 L62,264 L61,263 L61,261 L60,260 L60,253 L59,252 L59,208 L60,207 L60,202 L61,201 L61,198 L62,197 L62,190 L63,189 L63,186 L64,185 L64,182 L65,181 L65,179 L64,178 L51,178 L53,176 L53,174 L54,173 L54,171 L55,170 L55,169 L56,168 L56,166 L57,165 L57,164 L58,163 L58,161 L59,160 L59,158 L61,156 L61,154 L62,153 L62,152 L63,151 L63,149 L65,147 L65,146 L66,146 L68,144 L69,145 L70,145 L72,143 L76,143 L77,142 L79,142 L80,141 L80,139 L81,138 L81,137 L83,135 L83,134 L85,132 L85,130 L90,125 L90,124 L91,123 L91,122 L92,121 L92,120 L96,116 L96,115 L98,113 L98,112 L100,110 L100,109 L101,109 L102,108 L102,107 L109,100 L109,99 L110,99 L111,98 L111,97 L119,89 L120,89 L128,81 L127,80 L127,69 L126,68 L126,61 L125,60 L125,46 L124,45 L124,44 L195,44 L196,43 L198,43 L199,42 L201,42 L202,41 L205,41 L206,40 L209,40 L210,39 L213,39 L214,38 L217,38 L218,37 L217,36 L0,36 L0,15 L511,15 L511,36 L367,36 L366,37 L366,40 L365,41 L365,45 L364,46 L364,53 L363,54 L363,61 L362,62 L362,63 L363,64 L362,65 L362,66 L365,69 L366,69 L368,71 L369,71 L371,73 L372,73 L372,74 L373,75 L374,75 L376,77 L377,77 L379,79 L380,79 L380,80 L381,81 L382,81 L392,91 L393,91 L394,92 L394,93 L396,95 L397,95 L398,96 L398,97 L408,107 L408,108 L409,109 L409,110 L414,115 L414,116 L416,118 L416,119 L418,121 L418,122 L420,124 L420,125 L421,126 L421,127 L424,130 L424,131 L426,133 L426,134 L427,135 L427,136 L428,137 L428,138 L429,139 L429,140 L430,141 L430,142 L432,144 L432,147 L433,148 L433,149 L434,150 L435,150 L435,154 L436,155 L436,156 L437,157 L437,159 L439,161 L439,163 L440,164 L440,167 L442,169 L442,172 L443,173 L443,176 L444,177 L444,179 L445,180 L445,183 L446,184 L446,187 L447,188 L447,194 L448,195 L448,198 L449,199 L449,208 L450,209 L450,218 L451,219 L451,220 L450,221 L451,222 L451,239 L450,240 L450,250 L449,251 L449,260 L448,261 L448,265 L447,266 L447,270 L446,271 L446,275 L445,276 L445,279 L444,280 L444,282 L443,283 L443,286 L442,287 L442,289 L441,290 L441,293 L440,294 L440,296 L439,297 L439,298 L438,299 L438,301 L437,302 L437,304 L436,305 L436,306 L435,307 L435,309 L434,310 L434,311 L433,312 L433,313 L432,314 L432,315 L431,316 L431,317 L429,319 L429,321 L428,322 L428,323 L426,325 L426,326 L424,328 L424,329 L423,330 L423,331 L421,333 L421,334 L420,335 L420,336 L418,338 L418,339 L416,341 L416,342 L413,345 L413,346 L410,349 L410,350 L408,352 L408,353 L403,358 L403,359 L402,360 L401,360 L400,361 L400,362 L387,375 L386,375 L385,376 L385,377 L384,378 L383,378 L380,381 L379,381 L374,386 L373,386 L371,388 L370,388 L366,392 L365,392 L363,394 L362,394 L361,395 L360,395 L358,397 L357,397 L355,399 L354,399 L353,400 L352,400 L349,403 L347,403 L346,404 L345,404 L344,405 L343,405 L342,406 L341,406 L340,407 L339,407 L338,408 L337,408 L336,409 L334,409 L333,410 L332,410 L329,413 L329,414 L326,417 L326,418 L324,420 L324,421 L321,424 L321,425 L317,429 L317,430 L315,432 L315,433 L314,434 L314,442 L315,443 L314,444 L315,445 L315,452 L313,452 L311,454 L310,454 L309,455 L308,455 L306,457 L305,457 L304,458 L303,458 L302,459 L301,459 L299,461 L298,460 L298,458 L297,457 L295,457 L294,458 L292,458 L289,461 L288,461 L287,462 L286,462 L285,463 L284,463 L283,464 L282,464 L281,465 L279,465 L278,466 L277,466 L276,467 L275,467 L274,468 L273,468 L272,469 L271,469 L269,471 L267,471 L266,472 L265,472 L263,474 L263,477 L264,478 L264,481 L265,482 L265,484 L266,485 L266,487 L267,488 L267,490 L266,491 L265,491 L264,492 L263,492 L261,494 L260,494 L258,496 L257,496 L256,497 L255,497 L253,499 Z" fill="#000000" stroke="none" /><path d="M328,48 L329,49 L331,49 L332,48 L332,37 L331,36 L292,36 L291,37 L292,38 L295,38 L296,39 L299,39 L300,40 L303,40 L304,41 L307,41 L308,42 L309,42 L310,43 L312,43 L313,44 L316,44 L317,45 L320,45 L321,46 L322,46 L323,47 L325,47 L326,48 Z" fill="#000000" stroke="none" /><path d="M309,128 L310,129 L311,129 L312,128 L313,128 L314,127 L314,126 L315,125 L315,124 L316,123 L316,121 L317,120 L317,118 L318,117 L318,116 L319,115 L319,113 L320,112 L320,110 L321,109 L321,108 L322,107 L322,105 L323,104 L323,103 L324,102 L324,101 L325,100 L325,99 L326,98 L326,96 L327,95 L327,94 L328,93 L328,91 L329,90 L329,88 L330,87 L330,86 L331,85 L331,83 L332,82 L332,71 L330,69 L328,69 L326,67 L325,67 L324,66 L321,66 L320,65 L318,65 L317,64 L316,64 L315,63 L314,63 L313,64 L313,63 L312,62 L309,62 L308,61 L307,61 L306,60 L304,60 L303,59 L300,59 L299,58 L296,58 L295,57 L290,57 L289,56 L286,56 L285,55 L278,55 L277,54 L276,54 L275,55 L274,54 L264,54 L263,55 L263,56 L264,57 L264,89 L265,90 L264,91 L264,92 L265,93 L264,94 L264,95 L265,96 L265,125 L267,127 L281,127 L282,128 L283,128 L284,127 L285,127 L286,128 L287,127 L288,127 L289,128 Z" fill="#000000" stroke="none" /><path d="M106,133 L107,134 L108,134 L109,133 L111,133 L112,132 L114,132 L115,131 L116,131 L117,130 L118,130 L119,131 L120,130 L122,130 L124,128 L125,128 L126,129 L127,128 L130,128 L131,127 L133,127 L134,126 L136,126 L137,125 L140,125 L141,124 L144,124 L145,123 L147,123 L148,122 L151,122 L153,120 L155,120 L157,118 L156,117 L156,115 L154,113 L155,112 L155,111 L154,110 L154,109 L153,108 L153,107 L152,106 L152,105 L151,104 L151,102 L150,101 L150,98 L149,97 L148,97 L148,96 L147,95 L145,95 L143,93 L142,93 L138,97 L137,97 L121,113 L121,114 L114,121 L114,122 L111,125 L111,126 L108,129 L108,130 L106,132 Z" fill="#000000" stroke="none" /><path d="M117,127  Z" fill="#000000" stroke="none" /><path d="M346,382 L347,382 L349,380 L350,380 L351,379 L352,379 L353,378 L354,378 L358,374 L360,374 L361,373 L362,373 L363,372 L363,371 L364,371 L366,369 L367,369 L373,363 L374,363 L377,360 L377,359 L378,359 L380,357 L380,356 L387,349 L387,348 L388,348 L392,344 L392,343 L393,342 L393,341 L394,341 L398,337 L398,335 L399,335 L400,334 L400,333 L401,332 L401,331 L402,331 L403,330 L403,328 L405,326 L405,325 L406,324 L406,323 L408,321 L408,320 L409,319 L409,318 L410,317 L410,316 L411,315 L411,314 L413,312 L413,310 L415,308 L415,307 L416,306 L416,305 L417,304 L417,303 L418,302 L418,300 L419,299 L419,298 L420,297 L420,295 L421,294 L421,292 L422,291 L422,290 L423,289 L423,288 L424,287 L424,283 L425,282 L425,280 L426,279 L426,278 L427,277 L427,276 L428,275 L427,274 L428,273 L428,272 L427,271 L429,269 L428,268 L429,267 L429,266 L430,265 L430,262 L431,261 L431,253 L432,252 L432,247 L433,246 L433,231 L434,230 L433,229 L433,228 L434,227 L433,226 L433,213 L432,212 L432,207 L431,206 L431,197 L430,196 L430,193 L429,192 L429,189 L427,187 L427,186 L428,185 L426,183 L427,182 L425,180 L425,178 L424,177 L424,173 L423,172 L423,171 L422,170 L422,169 L421,168 L421,166 L420,165 L420,164 L419,163 L419,160 L418,159 L418,158 L417,157 L417,156 L416,155 L416,154 L415,153 L415,152 L414,151 L414,150 L413,149 L413,148 L412,147 L412,146 L411,145 L411,144 L410,143 L410,142 L408,140 L408,139 L407,138 L407,137 L404,134 L404,133 L402,131 L402,130 L401,129 L401,128 L398,125 L398,124 L391,117 L391,116 L388,113 L388,112 L382,106 L381,106 L381,105 L378,102 L377,102 L377,101 L375,99 L374,99 L371,96 L370,96 L370,95 L368,93 L367,93 L364,90 L363,90 L361,88 L360,88 L359,89 L359,95 L358,96 L358,97 L359,98 L358,98 L357,99 L357,100 L358,101 L357,102 L357,103 L358,104 L358,105 L356,107 L356,123 L355,124 L355,133 L354,134 L354,144 L353,145 L354,146 L354,147 L353,148 L353,151 L352,152 L352,154 L351,155 L351,158 L349,160 L349,162 L348,163 L348,166 L347,167 L347,170 L345,172 L345,175 L344,176 L344,179 L343,180 L343,181 L342,182 L342,183 L341,184 L341,187 L340,188 L340,191 L339,192 L339,193 L338,194 L338,197 L337,198 L337,201 L335,203 L335,206 L334,207 L334,209 L333,210 L333,211 L332,212 L332,215 L331,216 L331,218 L330,219 L330,220 L329,221 L329,224 L328,225 L328,227 L327,228 L327,230 L326,231 L326,244 L325,245 L325,252 L324,253 L325,254 L325,255 L324,256 L324,259 L323,260 L323,261 L322,262 L322,265 L323,266 L321,268 L321,271 L320,272 L320,275 L319,276 L319,280 L318,281 L318,286 L317,287 L317,290 L316,291 L316,296 L315,297 L315,299 L314,300 L314,303 L313,304 L313,309 L312,310 L312,313 L311,314 L311,316 L310,317 L310,334 L312,336 L312,337 L313,338 L313,339 L314,340 L314,341 L316,343 L316,344 L327,355 L328,355 L330,357 L331,357 L333,359 L334,359 L337,362 L337,363 L338,364 L338,366 L340,368 L340,370 L341,371 L341,373 L342,374 L342,375 L343,376 L343,377 L344,378 L344,380 Z" fill="#000000" stroke="none" /><path d="M406,144  Z" fill="#000000" stroke="none" /><path d="M403,147  Z" fill="#000000" stroke="none" /><path d="M409,266  Z" fill="#000000" stroke="none" /><path d="M412,301  Z" fill="#000000" stroke="none" /><path d="M243,407 L244,408 L267,408 L268,407 L275,407 L276,406 L277,407 L278,406 L285,406 L286,405 L290,405 L291,404 L294,404 L295,403 L300,403 L301,402 L303,402 L304,401 L306,401 L307,400 L310,400 L311,399 L312,399 L313,398 L313,396 L314,395 L314,392 L312,390 L311,390 L309,388 L308,388 L307,387 L306,387 L304,385 L303,385 L302,384 L301,384 L298,381 L297,381 L296,380 L295,380 L293,378 L292,378 L291,377 L290,377 L289,376 L288,376 L287,375 L286,375 L283,372 L282,372 L281,371 L280,371 L278,369 L277,369 L275,367 L274,367 L273,366 L258,366 L257,367 L250,367 L249,368 L249,369 L248,370 L248,371 L246,373 L246,374 L245,375 L245,377 L243,379 L243,380 L242,381 L242,382 L241,383 L241,384 L239,386 L239,387 L238,388 L238,389 L237,390 L237,391 L235,393 L235,394 L233,394 L231,396 L228,396 L227,397 L223,397 L222,396 L218,396 L215,393 L214,394 L211,391 L210,391 L207,388 L207,387 L204,384 L204,383 L203,382 L203,381 L202,380 L202,377 L201,376 L201,367 L203,365 L203,364 L205,362 L205,361 L207,359 L207,357 L209,355 L209,354 L210,353 L210,352 L213,349 L213,348 L214,347 L214,346 L216,344 L216,343 L218,341 L219,341 L221,343 L222,343 L223,344 L224,343 L224,338 L223,337 L223,335 L218,330 L217,330 L201,314 L200,314 L200,313 L194,307 L194,306 L193,305 L193,304 L192,303 L192,302 L190,300 L190,299 L189,298 L189,297 L186,294 L186,293 L185,292 L185,291 L181,287 L180,287 L179,286 L178,286 L174,282 L173,282 L171,280 L169,280 L169,279 L167,277 L167,275 L164,272 L164,271 L162,269 L162,268 L161,267 L161,266 L160,265 L159,265 L159,264 L158,263 L158,262 L156,260 L156,259 L153,256 L153,254 L150,251 L150,250 L147,247 L147,246 L146,245 L146,244 L145,243 L145,242 L142,239 L142,238 L141,237 L138,237 L137,238 L132,238 L131,239 L131,240 L130,241 L130,243 L128,245 L127,244 L126,244 L125,243 L124,243 L123,242 L122,242 L122,241 L123,240 L123,238 L124,237 L124,234 L125,233 L125,231 L126,230 L126,228 L127,227 L127,223 L128,222 L128,219 L127,218 L127,211 L128,211 L129,210 L129,209 L131,207 L137,207 L139,205 L139,201 L140,200 L140,198 L141,198 L142,197 L142,196 L144,194 L145,194 L146,193 L147,193 L149,191 L151,191 L153,189 L154,190 L155,190 L156,189 L157,189 L159,187 L165,187 L166,186 L186,186 L187,187 L193,187 L195,189 L196,189 L197,188 L198,189 L199,189 L200,190 L201,189 L203,191 L204,190 L204,191 L205,192 L207,192 L209,194 L210,194 L211,195 L213,195 L213,196 L217,200 L218,200 L218,201 L219,202 L220,202 L221,203 L220,204 L221,205 L221,206 L219,206 L217,208 L217,209 L216,209 L215,210 L214,210 L209,205 L208,205 L206,203 L205,203 L204,202 L203,202 L201,200 L200,200 L199,199 L197,199 L196,198 L195,198 L194,197 L191,197 L190,196 L187,196 L186,195 L180,195 L179,194 L177,194 L176,195 L175,194 L174,194 L173,195 L172,194 L171,194 L170,195 L164,195 L163,196 L160,196 L159,197 L156,197 L154,199 L153,199 L152,200 L151,200 L148,203 L148,204 L146,206 L146,208 L148,210 L149,210 L150,211 L150,214 L151,215 L151,218 L153,220 L153,221 L152,222 L152,226 L154,228 L154,229 L155,230 L156,230 L157,231 L158,231 L160,233 L161,233 L165,237 L166,237 L168,239 L169,239 L172,242 L173,242 L176,245 L177,245 L179,247 L180,247 L183,250 L184,250 L188,254 L189,254 L191,256 L192,256 L196,260 L197,260 L199,262 L199,263 L200,264 L200,266 L201,267 L201,268 L202,269 L202,270 L203,271 L203,272 L204,273 L206,273 L209,276 L211,276 L212,277 L213,277 L215,279 L216,279 L217,280 L218,280 L219,281 L220,281 L221,282 L224,282 L248,258 L248,251 L249,250 L249,235 L248,234 L248,233 L247,232 L247,231 L244,228 L244,227 L242,225 L242,224 L241,223 L241,221 L239,219 L239,218 L237,216 L237,215 L235,213 L235,212 L232,209 L232,206 L231,205 L232,204 L231,203 L231,199 L230,198 L230,194 L229,193 L229,187 L228,186 L228,183 L275,183 L276,182 L276,178 L275,177 L275,173 L274,172 L274,171 L273,170 L273,167 L272,166 L272,163 L271,162 L271,161 L270,160 L270,158 L269,157 L268,157 L267,156 L266,156 L265,155 L264,155 L262,153 L260,153 L258,151 L257,151 L255,149 L253,149 L251,147 L250,147 L249,146 L247,146 L245,144 L244,144 L243,143 L241,143 L239,141 L238,141 L237,140 L236,140 L234,138 L232,138 L231,137 L230,137 L228,135 L227,135 L226,134 L224,134 L223,133 L222,133 L220,131 L221,130 L220,129 L220,104 L221,104 L222,103 L223,103 L226,100 L227,100 L230,97 L232,97 L236,93 L237,93 L238,92 L239,92 L241,90 L242,90 L244,88 L245,88 L246,87 L246,86 L247,85 L248,86 L250,84 L251,84 L253,82 L253,79 L254,78 L254,56 L255,55 L255,54 L253,52 L252,53 L247,53 L246,54 L246,60 L245,61 L245,62 L246,63 L245,64 L245,77 L244,78 L244,80 L243,80 L241,82 L240,82 L238,84 L237,84 L233,88 L233,89 L232,90 L230,90 L228,92 L226,92 L224,94 L223,94 L222,95 L221,95 L220,96 L219,96 L217,98 L216,98 L215,99 L214,99 L213,100 L213,127 L212,128 L213,129 L213,136 L214,137 L216,137 L217,138 L220,138 L221,139 L226,139 L227,140 L230,140 L232,142 L233,142 L234,143 L235,143 L237,145 L238,145 L239,146 L240,146 L242,148 L243,148 L244,149 L245,149 L247,151 L248,151 L250,153 L251,153 L253,155 L254,155 L256,157 L257,157 L259,159 L260,159 L261,160 L262,160 L263,161 L264,161 L267,164 L267,167 L268,168 L267,169 L268,170 L268,173 L269,174 L269,177 L100,177 L99,178 L85,178 L83,180 L84,181 L83,182 L83,183 L82,184 L82,185 L81,186 L81,188 L80,189 L80,195 L79,196 L79,199 L78,200 L78,204 L77,205 L77,218 L76,219 L76,240 L77,241 L77,255 L78,256 L78,258 L79,259 L79,263 L80,264 L80,271 L81,272 L81,274 L82,275 L82,278 L83,279 L83,281 L84,282 L84,283 L85,284 L85,285 L86,286 L86,288 L87,289 L87,291 L88,292 L88,294 L89,295 L89,296 L90,297 L90,299 L91,300 L91,301 L92,302 L92,303 L93,304 L93,305 L94,306 L94,308 L96,310 L96,312 L97,313 L97,314 L99,316 L99,317 L101,319 L101,321 L103,323 L103,324 L105,326 L105,328 L107,330 L107,331 L109,333 L109,334 L114,339 L114,340 L115,341 L115,342 L119,346 L120,346 L120,347 L121,348 L122,348 L122,349 L123,350 L124,350 L125,351 L125,352 L126,353 L127,353 L127,354 L128,355 L128,356 L132,360 L133,360 L134,361 L134,362 L135,363 L136,363 L142,369 L143,369 L144,370 L145,370 L150,375 L151,375 L152,376 L154,376 L156,378 L157,378 L160,381 L161,381 L162,382 L163,382 L164,383 L165,383 L166,384 L167,384 L169,386 L170,386 L171,387 L172,387 L173,388 L174,388 L175,389 L176,389 L177,390 L178,390 L179,391 L180,391 L181,392 L182,392 L183,393 L185,393 L187,395 L188,395 L190,397 L193,397 L194,398 L196,398 L197,399 L198,399 L199,400 L202,400 L203,401 L205,401 L206,402 L208,402 L209,403 L213,403 L214,404 L217,404 L218,405 L222,405 L223,406 L232,406 L233,407 Z" fill="#000000" stroke="none" /><path d="M201,185  Z" fill="#000000" stroke="none" /><path d="M229,207  Z" fill="#000000" stroke="none" /><path d="M173,207  Z" fill="#000000" stroke="none" /><path d="M114,239  Z" fill="#000000" stroke="none" /><path d="M204,331  Z" fill="#000000" stroke="none" /></svg>